HIERARCHY
ROOT Hips
{
	OFFSET	0.00	0.00	0.00
	CHANNELS 6 Xposition Yposition Zposition Zrotation Xrotation Yrotation
	JOINT LeftUpLeg
	{
		OFFSET	 0.126116	-0.065224	 0.014019
		CHANNELS 3 Zrotation Xrotation Yrotation
		JOINT LeftLeg
		{
			OFFSET	 0.000000	 0.569914	 0.000000
			CHANNELS 3 Zrotation Xrotation Yrotation
			JOINT LeftFoot
			{
				OFFSET	 0.000000	 0.544423	 0.000000
				CHANNELS 3 Zrotation Xrotation Yrotation
				JOINT LeftToeBase
				{
					OFFSET	 0.000000	 0.207117	 0.000000
					CHANNELS 3 Zrotation Xrotation Yrotation
					End Site
					{
						OFFSET	 0.000000	 0.207117	 0.000000
					}
				}
			}
		}
	}
	JOINT RightUpLeg
	{
		OFFSET	-0.124023	-0.065224	 0.008373
		CHANNELS 3 Zrotation Xrotation Yrotation
		JOINT RightLeg
		{
			OFFSET	 0.000000	 0.570047	 0.000000
			CHANNELS 3 Zrotation Xrotation Yrotation
			JOINT RightFoot
			{
				OFFSET	 0.000000	 0.544354	 0.000000
				CHANNELS 3 Zrotation Xrotation Yrotation
				JOINT RightToeBase
				{
					OFFSET	 0.000000	 0.207540	 0.000000
					CHANNELS 3 Zrotation Xrotation Yrotation
					End Site
					{
						OFFSET	 0.000000	 0.207540	 0.000000
					}
				}
			}
		}
	}
	JOINT Spine
	{
		OFFSET	 0.000184	 0.117403	 0.007763
		CHANNELS 3 Zrotation Xrotation Yrotation
		JOINT Spine1
		{
			OFFSET	 0.000000	 0.137269	 0.000000
			CHANNELS 3 Zrotation Xrotation Yrotation
			JOINT Spine2
			{
				OFFSET	 0.000000	 0.156879	 0.000000
				CHANNELS 3 Zrotation Xrotation Yrotation
				JOINT LeftShoulder
				{
					OFFSET	 0.080501	 0.160143	 0.002496
					CHANNELS 3 Zrotation Xrotation Yrotation
					JOINT LeftArm
					{
						OFFSET	 0.000000	 0.164363	 0.000000
						CHANNELS 3 Zrotation Xrotation Yrotation
						JOINT LeftForeArm
						{
							OFFSET	 0.000000	 0.364576	 0.000000
							CHANNELS 3 Zrotation Xrotation Yrotation
							JOINT LeftHand
							{
								OFFSET	 0.000000	 0.360812	 0.000000
								CHANNELS 3 Zrotation Xrotation Yrotation
								JOINT LeftHandIndex1
								{
									OFFSET	 0.000000	 0.086006	 0.000000
									CHANNELS 3 Zrotation Xrotation Yrotation
									JOINT LeftHandIndex2
									{
										OFFSET	 0.000000	 0.047237	 0.000000
										CHANNELS 3 Zrotation Xrotation Yrotation
										JOINT LeftHandIndex3
										{
											OFFSET	-0.004284	 0.038165	 0.000551
											CHANNELS 3 Zrotation Xrotation Yrotation
											End Site
											{
												OFFSET	-0.004284	 0.038165	 0.000551
											}
										}
									}
								}
							}
						}
					}
				}
				JOINT Neck
				{
					OFFSET	 0.000000	 0.176489	 0.000000
					CHANNELS 3 Zrotation Xrotation Yrotation
					JOINT Head
					{
						OFFSET	 0.000000	 0.077941	 0.001747
						CHANNELS 3 Zrotation Xrotation Yrotation
						End Site
						{
							OFFSET	 0.000000	 0.077941	 0.001747
						}
					}
				}
				JOINT RightShoulder
				{
					OFFSET	-0.080363	 0.159706	-0.000306
					CHANNELS 3 Zrotation Xrotation Yrotation
					JOINT RightArm
					{
						OFFSET	 0.000000	 0.164196	 0.000000
						CHANNELS 3 Zrotation Xrotation Yrotation
						JOINT RightForeArm
						{
							OFFSET	 0.000000	 0.365611	 0.000000
							CHANNELS 3 Zrotation Xrotation Yrotation
							JOINT RightHand
							{
								OFFSET	 0.000000	 0.360648	 0.000000
								CHANNELS 3 Zrotation Xrotation Yrotation
								JOINT RightHandIndex1
								{
									OFFSET	 0.000000	 0.069977	 0.000000
									CHANNELS 3 Zrotation Xrotation Yrotation
									JOINT RightHandIndex2
									{
										OFFSET	 0.000000	 0.052305	 0.000000
										CHANNELS 3 Zrotation Xrotation Yrotation
										JOINT RightHandIndex3
										{
											OFFSET	 0.009002	 0.042196	 0.000782
											CHANNELS 3 Zrotation Xrotation Yrotation
											End Site
											{
												OFFSET	 0.009002	 0.042196	 0.000782
											}
										}
									}
								}
							}
						}
					}
				}
			}
		}
	}
}
MOTION
Frames:    10
Frame Time: 0.03333334
 0.482514	 1.046700	 0.590412	-7.794708	-38.413380	-179.572700	 102.169000	 75.713390	 70.428990	 35.073620	-65.188260	 42.400670	 14.485650	 78.024790	-26.783990	 1.292262	 28.425850	-2.713146	-85.184360	 85.626730	-102.244000	-33.416500	-70.760540	-40.447980	-26.622780	 77.395360	 35.739430	-1.288183	 28.361890	 2.710176	-0.780925	 14.988370	-2.547030	-1.461345	 14.956520	-2.122106	-0.932725	 3.996871	 1.725971	-127.208700	 29.869830	 107.442100	 33.700280	-4.743685	 9.944167	 39.019230	-2.932826	-24.677610	 2.658686	-27.022910	 17.049470	-6.580301	 5.266122	 0.000000	 0.000000	 0.000000	 0.000000	 0.000000	 0.000000	 0.000000	 10.781340	 42.504620	-4.939717	-6.121192	-49.346110	-0.014069	 128.030700	 29.234210	-107.893800	-35.963990	-4.067900	 17.203300	-40.167170	 0.881622	-16.493090	-21.157740	-17.922430	-14.305170	 15.208500	 5.323790	 0.000000	 0.000000	 0.000000	 0.000000	 0.000000	 0.000000	 0.000000
 0.482304	 1.027362	 0.593846	-7.962116	-38.421280	-179.967400	 93.795310	 76.284970	 78.413110	 40.002910	-67.546330	 46.920780	 14.255070	 79.024440	-26.572100	 1.292262	 28.425850	-2.713146	-64.310070	 84.485480	-123.108000	-38.712870	-72.916500	-45.709320	-28.028760	 78.105690	 37.188850	-1.288183	 28.361890	 2.710176	-0.787425	 15.051850	-2.523152	-1.400408	 15.684030	-2.192974	-1.077870	 3.495434	 1.507511	-126.832600	 30.933430	 107.928700	 33.819270	-5.047791	 9.888287	 38.024310	-2.869695	-29.542970	 4.033529	-24.015870	 19.055590	-6.580301	 5.266122	 0.000000	 0.000000	 0.000000	 0.000000	 0.000000	 0.000000	 0.000000	 10.938160	 42.401970	-4.907546	-6.365504	-49.871400	-0.130646	 127.167100	 29.900900	-107.955700	-36.269080	-4.856590	 16.162850	-39.613660	 0.871506	-13.499270	-20.181290	-14.176510	-14.289790	 15.208500	 5.323790	 0.000000	 0.000000	 0.000000	 0.000000	 0.000000	 0.000000	 0.000000
 0.481742	 1.010747	 0.597244	-8.127012	-38.444480	 179.701700	 86.272550	 76.551160	 85.555940	 44.678730	-69.302320	 51.263420	 13.581070	 79.744750	-25.878330	 1.292262	 28.425850	-2.713146	-52.426330	 83.201270	-135.079500	-43.954980	-74.521620	-50.981960	-28.931710	 78.627310	 38.226950	-1.288183	 28.361890	 2.710176	-0.774892	 15.067950	-2.511680	-1.345617	 16.171010	-2.273362	-1.223698	 3.107364	 1.292708	-126.464300	 31.995740	 108.410900	 33.553690	-5.375191	 9.781543	 37.359250	-2.826864	-34.506370	 5.250639	-20.871290	 21.138650	-6.580301	 5.266122	 0.000000	 0.000000	 0.000000	 0.000000	 0.000000	 0.000000	 0.000000	 11.094200	 42.299790	-4.875173	-6.612417	-50.393930	-0.250389	 126.302500	 30.566630	-108.006600	-36.278390	-5.349768	 15.102840	-39.125670	 0.862469	-10.469710	-19.463010	-10.707960	-14.466910	 15.208500	 5.323790	 0.000000	 0.000000	 0.000000	 0.000000	 0.000000	 0.000000	 0.000000
 0.481144	 0.999872	 0.599765	-8.284128	-38.400310	 179.437800	 81.494980	 76.642600	 90.006550	 47.993000	-70.327110	 54.360560	 12.798850	 80.142760	-25.055090	 1.292262	 28.425850	-2.713146	-47.153790	 82.297450	-140.478400	-47.766490	-75.447560	-54.897010	-29.673150	 78.912160	 39.110770	-1.288183	 28.361890	 2.710176	-0.758451	 15.100320	-2.451039	-1.346924	 16.380630	-2.287084	-1.347188	 2.860492	 1.096482	-126.129800	 32.978950	 108.854000	 33.015160	-5.525398	 9.694551	 37.002910	-2.803944	-39.179880	 6.321870	-17.927380	 23.237060	-6.580301	 5.266122	 0.000000	 0.000000	 0.000000	 0.000000	 0.000000	 0.000000	 0.000000	 11.238140	 42.205470	-4.844990	-6.843712	-50.875730	-0.364320	 125.497500	 31.178870	-108.042600	-36.023270	-5.548299	 14.095780	-38.783180	 0.856219	-7.631261	-18.871700	-7.822313	-14.732290	 15.208500	 5.323790	 0.000000	 0.000000	 0.000000	 0.000000	 0.000000	 0.000000	 0.000000
 0.480403	 0.986853	 0.602932	-8.471074	-38.358210	 179.141500	 75.997510	 76.579030	 95.060530	 52.010910	-71.372290	 58.040830	 11.363420	 80.545850	-23.544040	 1.292262	 28.425850	-2.713146	-42.558450	 81.197660	-145.305700	-52.673640	-76.411630	-59.817280	-30.247560	 79.247570	 39.765260	-1.288183	 28.361890	 2.710176	-0.723139	 15.046480	-2.433119	-1.298858	 16.967920	-2.361457	-1.502306	 2.248762	 0.885923	-125.634400	 33.772330	 109.118600	 33.120250	-5.816026	 10.561980	 36.658910	-2.781515	-42.264400	 7.093285	-15.606310	 24.621220	-6.580301	 5.266122	 0.000000	 0.000000	 0.000000	 0.000000	 0.000000	 0.000000	 0.000000	 11.467150	 41.997300	-4.877265	-7.254250	-51.477460	-0.559532	 124.805000	 31.750370	-108.087000	-36.466780	-5.668223	 13.158990	-38.294280	 0.847035	-6.076731	-18.253130	-5.896041	-15.668810	 15.208500	 5.323790	 0.000000	 0.000000	 0.000000	 0.000000	 0.000000	 0.000000	 0.000000
 0.479101	 0.987351	 0.604857	-8.752032	-38.061700	 178.951600	 77.672270	 76.570220	 92.889270	 50.916590	-71.106880	 56.760410	 9.747698	 80.207150	-21.766350	 1.292262	 28.425850	-2.713146	-43.948350	 81.585340	-144.452000	-51.571890	-76.214630	-58.717670	-29.977370	 79.160290	 39.553090	-1.288183	 28.361890	 2.710176	-0.659332	 14.929660	-2.304019	-1.322657	 17.197300	-2.299566	-1.665776	 1.632762	 0.641339	-124.936900	 34.150970	 109.061100	 33.236720	-5.307609	 11.989610	 37.365080	-2.827276	-42.729510	 7.911209	-14.402130	 25.045160	-6.580301	 5.266122	 0.000000	 0.000000	 0.000000	 0.000000	 0.000000	 0.000000	 0.000000	 11.732780	 41.513420	-4.964225	-7.766308	-51.922950	-0.812987	 124.371000	 32.141340	-108.129000	-37.001830	-4.948569	 12.286630	-38.231930	 0.845938	-5.747884	-17.428450	-6.016071	-17.168240	 15.208500	 5.323790	 0.000000	 0.000000	 0.000000	 0.000000	 0.000000	 0.000000	 0.000000
 0.477870	 0.987993	 0.606618	-9.012339	-37.817240	 178.806300	 78.791170	 76.544600	 91.428070	 50.165400	-70.916660	 55.819430	 8.316575	 79.946690	-20.214210	 1.292262	 28.425850	-2.713146	-44.876330	 81.896690	-143.982700	-50.690980	-76.049400	-57.685820	-29.024360	 79.128670	 38.604060	-1.288183	 28.361890	 2.710176	-0.607957	 14.825780	-2.239891	-1.283022	 17.393390	-2.297803	-1.797212	 1.251464	 0.423583	-124.394500	 34.144340	 108.847900	 33.764900	-4.592250	 12.166190	 37.856290	-2.858865	-42.221560	 8.878675	-14.271910	 24.840580	-6.580301	 5.266122	 0.000000	 0.000000	 0.000000	 0.000000	 0.000000	 0.000000	 0.000000	 11.823410	 40.894690	-4.996127	-7.958882	-51.764830	-0.929587	 124.236200	 32.250860	-108.133400	-37.719910	-4.700524	 11.794960	-38.502470	 0.850910	-5.078892	-16.842360	-6.813825	-17.906830	 15.208500	 5.323790	 0.000000	 0.000000	 0.000000	 0.000000	 0.000000	 0.000000	 0.000000
 0.454090	 1.120998	 0.605690	-6.599653	-29.412940	-178.932000	 141.956500	 64.900720	 32.106250	 21.160970	-53.649980	 26.342080	 4.337917	 72.106800	-13.639480	 1.292262	 28.425850	-2.713146	-172.925500	 73.184470	-17.258500	-18.674670	-59.024350	-27.960780	-24.563050	 72.699400	 34.482960	-1.288183	 28.361890	 2.710176	 0.235856	 11.458450	-1.349324	 0.067275	 16.994430	-1.711153	-1.213028	-4.550809	-1.545755	-120.537800	 26.943490	 103.708400	 30.431980	 10.952870	 11.600420	 48.838930	-3.505847	-38.305170	 25.792670	-17.906230	 23.561060	-6.580301	 5.266122	 0.000000	 0.000000	 0.000000	 0.000000	 0.000000	 0.000000	 0.000000	 1.335847	 14.177370	-1.213838	-0.836333	-26.857620	-0.543554	 124.188900	 26.187470	-104.826000	-32.939500	 5.007171	 2.565712	-49.829410	 1.044418	-3.147614	-25.655850	-23.387510	-22.346890	 15.208500	 5.323790	 0.000000	 0.000000	 0.000000	 0.000000	 0.000000	 0.000000	 0.000000
 0.450192	 1.146906	 0.601832	-5.767535	-27.833150	-178.189100	 147.674900	 61.039110	 27.658120	 18.095470	-49.459460	 24.014350	 5.716515	 70.450300	-14.581270	 1.292262	 28.425850	-2.713146	-175.862100	 68.538460	-14.046780	-15.839850	-54.847380	-25.578370	-23.904630	 71.160640	 33.743060	-1.288183	 28.361890	 2.710176	 0.410461	 10.468220	-1.308480	 0.333871	 16.314360	-1.588867	-0.980642	-5.892138	-1.664618	-117.131800	 24.812690	 101.668000	 30.291310	 16.721130	 10.798600	 50.949660	-3.616014	-37.038370	 28.331180	-20.028160	 23.849070	-6.580301	 5.266122	 0.000000	 0.000000	 0.000000	 0.000000	 0.000000	 0.000000	 0.000000	 0.804151	 7.493798	-1.069204	-0.641580	-20.910790	-0.608196	 121.936700	 24.724830	-103.364100	-32.440170	 8.781047	 1.408080	-52.752370	 1.088035	-3.867234	-27.292070	-27.160720	-23.275430	 15.208500	 5.323790	 0.000000	 0.000000	 0.000000	 0.000000	 0.000000	 0.000000	 0.000000
 0.449077	 1.160541	 0.597640	-4.914683	-26.376420	-177.542900	 150.805300	 58.382250	 25.776670	 16.900790	-47.578610	 23.183070	 6.925137	 69.920060	-15.509360	 1.292262	 28.425850	-2.713146	-176.269600	 65.342270	-13.120810	-14.673340	-52.809180	-24.699050	-24.243870	 70.401660	 33.854310	-1.288183	 28.361890	 2.710176	 0.618287	 9.851434	-1.241384	 0.651073	 17.517860	-1.437675	-0.738779	-8.131187	-1.891309	-113.755300	 22.499190	 99.740000	 31.565780	 21.863390	 9.113591	 51.897620	-3.663952	-35.854280	 31.998250	-22.234300	 24.472600	-6.580301	 5.266122	 0.000000	 0.000000	 0.000000	 0.000000	 0.000000	 0.000000	 0.000000	 0.276077	 0.574641	-0.985911	-0.443202	-14.758960	-0.686939	 119.679200	 23.185710	-101.936600	-33.213020	 11.961970	 0.795151	-54.557750	 1.113509	-4.539973	-30.430810	-31.490920	-25.294350	 15.208500	 5.323790	 0.000000	 0.000000	 0.000000	 0.000000	 0.000000	 0.000000	 0.000000
